<html>
<head>
<meta charset="UTF-8">
<meta name="viewport" content="width=device-width, initial-scale=1.0"/>

<style>
.comment
{
    padding-left: 20px;
    margin-top: 4px;
    margin-right: 4px;
    margin-bottom: 4px;
    border: 2px #000 solid;
}
.submission
{
    border: 4px #00f solid;
    padding-left: 20px;
}
.hidden
{
    display: none;
}
</style>
</head>
<body><div class="submission" id="t3_5usyht">
    <p class="userinfo">
        <a href="https://www.reddit.com/u/joaopedro735">joaopedro735</a>
        <span class="score"> | 10 points</span>
        <span class="timestamp"> | Feb 18 2017 15:40:31</span>
    </p>
    <strong>[MOVIE] Playing It Cool (2014) [1080p][1.44GB]</strong>
    <p><p>Link:
https://mega.nz/#F!RxsVjazA</p>
<p>Key:
!2RntdlQpMx9RnVM5fgPR4w</p>
<blockquote>
<p>General</p>
</blockquote>
<p>Complete name               : Playing.It.Cool.2014.1080p.BluRay.x264.YIFY.mp4</p>
<p>Format                      : MPEG-4</p>
<p>Format profile              : Base Media</p>
<p>Codec ID                    : isom (isom/avc1)</p>
<p>File size                   : 1.44 GiB</p>
<p>Duration                    : 1 h 34 min</p>
<p>Overall bit rate mode       : Variable</p>
<p>Overall bit rate            : 2 179 kb/s</p>
<blockquote>
<p>Video</p>
</blockquote>
<p>Format                      : AVC</p>
<p>Format profile              : High@L4.1</p>
<p>Duration                    : 1 h 34 min</p>
<p>Bit rate                    : 2 082 kb/s</p>
<p>Maximum bit rate            : 13.9 Mb/s</p>
<p>Width                       : 1 920 pixels</p>
<p>Height                      : 800 pixels</p>
<p>Display aspect ratio        : 2.40:1</p>
<p>Frame rate mode             : Constant</p>
<p>Frame rate                  : 23.976 (24000/1001) FPS</p>
<p>Original frame rate         : 23.976 (23976/1000) FPS</p>
<p>Bit depth                   : 8 bits</p>
<p>Scan type                   : Progressive</p>
<p>Bits/(Pixel*Frame)          : 0.057</p>
<p>Stream size                 : 1.38 GiB (96%)</p>
<p>Color range                 : Limited</p>
<p>Color primaries             : BT.709</p>
<p>Matrix coefficients         : BT.709</p>
<blockquote>
<p>Audio</p>
</blockquote>
<p>Format                      : AAC</p>
<p>Duration                    : 1 h 34 min</p>
<p>Bit rate mode               : Variable</p>
<p>Bit rate                    : 93.7 kb/s</p>
<p>Maximum bit rate            : 102 kb/s</p>
<p>Channel(s)                  : 2 channels</p>
<p>Channel positions           : Front: L R</p>
<p>Sampling rate               : 48.0 kHz</p>
<p>Frame rate                  : 46.875 FPS (1024 spf)</p>
<p>Compression mode            : Lossy</p>
<p>Stream size                 : 63.5 MiB (4%)</p>
<p>Language                    : English</p></p>
    <p class="toolbar">
        <a href="https://www.reddit.com/r/megalinks/comments/5usyht">permalink</a>
    </p>
</div>
<div class="comment" id="t1_ddwl3z2">
    <p class="userinfo">
        <a
        class="toggle_hide_button"
        href="javascript:void(0)"
        onclick="toggle_collapse(this.parentElement.parentElement)">[-]
        </a>
        <a href="https://www.reddit.com/u/boltrop">boltrop</a>
        <span class="score"> | 2 points</span>
        <span class="timestamp"> | Feb 18 2017 15:43:06</span>
    </p>
    <div class="collapsible">
        <h3><a href="https://images-na.ssl-images-amazon.com/images/M/MV5BMjIwMjA2ODU3NF5BMl5BanBnXkFtZTgwMjk2MDA2NTE@._V1_.jpg">Playing It Cool</a> (2014)</h3>
<p><strong>Genre</strong>: Comedy, Romance</p>
<p><strong>Rating</strong>:  6 (17575 votes)</p>
<p><strong>Certification</strong>: R</p>
<p><strong>Runtime</strong>: 94 min</p>
<hr>
<blockquote>
<p><strong>Director(s)</strong>: <a href="https://www.imdb.com/name/nm2489573/">Justin Reardon</a></p>
<p><strong>Writer(s)</strong>: <a href="https://www.imdb.com/name/nm1281191/">Chris Shafer</a>, <a href="https://www.imdb.com/name/nm1343759/">Paul Vicknair</a></p>
<p><strong>Cast</strong>: <a href="https://www.imdb.com/name/nm0262635/">Chris Evans</a>, <a href="https://www.imdb.com/name/nm1157358/">Michelle Monaghan</a>, <a href="https://www.imdb.com/name/nm0333410/">Topher Grace</a>, <a href="https://www.imdb.com/name/nm2201555/">Aubrey Plaza</a></p>
<p><strong>Plot</strong>: Unrequited love motivates a guy to write about his experiences.</p>
</blockquote>
<hr>
<p>^This ^summary ^is ^taken ^from <a href="https://www.imdb.com/title/tt2139555/">^imdb.com</a> ^| ^For ^feedback ^or ^suggestions ^contact <a href="http://www.reddit.com/message/compose/?to=indigo6alpha">^/u/indigo6alpha</a></p>
        <p class="toolbar">
            <a href="https://www.reddit.com/r/megalinks/comments/5usyht/_/ddwl3z2">permalink</a>
        </p>
        
    </div>
</div>

<div class="comment" id="t1_ddwl1bc">
    <p class="userinfo">
        <a
        class="toggle_hide_button"
        href="javascript:void(0)"
        onclick="toggle_collapse(this.parentElement.parentElement)">[-]
        </a>
        <a href="https://www.reddit.com/u/SubZorro">SubZorro</a>
        <span class="score"> | 1 points</span>
        <span class="timestamp"> | Feb 18 2017 15:41:09</span>
    </p>
    <div class="collapsible">
        <h5>Subtitles for this movie:</h5>
<hr>
<blockquote>
<ul>
<li>
<p><strong>Playing It Cool (2014)</strong> - <code>1 CD</code> - <a href="http://dl.opensubtitles.org/en/download/vrf-37701a58/sub/6259163">Download Subtitle</a></p>
</li>
<li>
<p><strong>Playing.It.Cool.2014.LIMITED.720p.BluRay.X264-CADAVER</strong> - <code>1 CD</code> - <a href="http://dl.opensubtitles.org/en/download/vrf-9e018433/sub/6113648">Download Subtitle</a></p>
</li>
<li>
<p><strong>Playing.It.Cool.2014.720p.BluRay.x264.DTS-NoHaTE</strong> - <code>1 CD</code> - <a href="http://dl.opensubtitles.org/en/download/vrf-8e17b065/sub/6262838">Download Subtitle</a></p>
</li>
</ul>
</blockquote>
<hr>
<p>^This ^list ^of ^subtitles ^are ^taken ^from <a href="http://www.opensubtitles.org">^opensubtitles.org</a> ^| ^For ^feedback ^or ^suggestions ^contact <a href="http://www.reddit.com/message/compose/?to=indigo6alpha">^/u/indigo6alpha</a></p>
        <p class="toolbar">
            <a href="https://www.reddit.com/r/megalinks/comments/5usyht/_/ddwl1bc">permalink</a>
        </p>
        
    </div>
</div>
</body>

<script>
function toggle_collapse(comment_div)
{
    var button = comment_div.getElementsByClassName("toggle_hide_button")[0];
    var collapsible = comment_div.getElementsByClassName("collapsible")[0];
    if (collapsible.classList.contains("hidden"))
    {
        collapsible.classList.remove("hidden");
        button.innerText = "[-]";
    }
    else
    {
        collapsible.classList.add("hidden");
        button.innerText = "[+]";
    }
}
</script>
</html>
